<?xml version="1.0" encoding="utf-8"?>
<!-- Generator: Adobe Illustrator 24.2.0, SVG Export Plug-In . SVG Version: 6.00 Build 0)  -->
<svg version="1.1" xmlns="http://www.w3.org/2000/svg" xmlns:xlink="http://www.w3.org/1999/xlink" x="0px" y="0px"
	 viewBox="0 0 841.89 595.28" style="enable-background:new 0 0 841.89 595.28;" xml:space="preserve">
<style type="text/css">
	.st0{fill:none;stroke:#000000;stroke-miterlimit:10;}
	.st1{font-family:'MyriadPro-Regular';}
	.st2{font-size:13.9737px;}
	.st3{fill:#4EAFE3;}
	.st4{fill:#BA3545;}
	.st5{fill:#1D5F77;}
	.st6{fill:#DD6E85;}
	.st7{fill:#747373;}
	.st8{font-size:9.3991px;}
	.st9{font-size:14.3887px;}
	.st10{fill:#A5A3A3;}
	.st11{fill:#FFFFFF;}
	.st12{font-size:10.7915px;}
</style>
<g id="Capa_1">
	<g>
		<line class="st0" x1="20.67" y1="305.14" x2="435.63" y2="305.14"/>
		<line class="st0" x1="56.96" y1="305.14" x2="56.96" y2="310.8"/>
		<line class="st0" x1="114.17" y1="304.19" x2="114.17" y2="311.95"/>
		<line class="st0" x1="171.84" y1="303.46" x2="171.84" y2="311.22"/>
		<line class="st0" x1="228.65" y1="304.23" x2="228.65" y2="311.98"/>
		<line class="st0" x1="285.1" y1="304.05" x2="285.1" y2="311.81"/>
		<line class="st0" x1="342.67" y1="305.07" x2="342.67" y2="312.82"/>
		<line class="st0" x1="400.24" y1="305.07" x2="400.24" y2="312.82"/>
		<line class="st0" x1="56.96" y1="305.14" x2="56.96" y2="77.92"/>
		<line class="st0" x1="56.96" y1="262.03" x2="49.2" y2="262.03"/>
		<line class="st0" x1="56.85" y1="217.91" x2="49.09" y2="217.91"/>
		<line class="st0" x1="56.96" y1="173.75" x2="49.2" y2="173.75"/>
		<line class="st0" x1="56.85" y1="130.15" x2="49.09" y2="130.15"/>
		<text transform="matrix(1 0 0 1 46.6279 298.4297)" class="st1 st2">0</text>
		<text transform="matrix(1 0 0 1 18.102 264.543)" class="st1 st2">20M</text>
		<text transform="matrix(1 0 0 1 17.8266 220.1211)" class="st1 st2">40M</text>
		<text transform="matrix(1 0 0 1 18.9404 177.0459)" class="st1 st2">60M</text>
		<text transform="matrix(1 0 0 1 19.5024 132.5743)" class="st1 st2">80M</text>
		<text transform="matrix(1 0 0 1 100.2661 326.938)" class="st1 st2">1990</text>
		<text transform="matrix(1 0 0 1 158.5219 325.5874)" class="st1 st2">1995</text>
		<text transform="matrix(1 0 0 1 213.2749 324.4214)" class="st1 st2">2000</text>
		<text transform="matrix(1 0 0 1 268.9751 324.4214)" class="st1 st2">2005</text>
		<text transform="matrix(1 0 0 1 325.0952 324.7495)" class="st1 st2">2010</text>
		<text transform="matrix(1 0 0 1 387.6674 326.0982)" class="st1 st2">2020</text>
	</g>
	<path class="st3" d="M114.37,267.24c-0.04-12.76-0.05-25.52-0.14-38.28c-0.01-1.83,0.62-2.7,1.87-2.65
		c6.18,0.25,11.11-3.7,16.25-7.25c3.23-2.23,7.05-2.17,10.62-3.03c3.32-0.79,6.64-1.04,9.94,0.19c0.31,0.41,0.61,0.81,0.92,1.22
		c1.35,1.38,2.49,3.03,3.75,4.54c4.77,7.27,11.68,10.58,17.67,15.6c3.98,3.34,7.87,4.05,12.35,2.03c2.31-1.04,4.8-1.6,7.03-2.89
		c3.93-2.28,8.03-3.04,12.27-3.01c1.63,0.01,3.02-0.53,4.38-1.64c7.58-6.2,7.62-6.32,16.33-3.79c6.17,1.79,12.28,3.6,18.63,1.6
		c0.79-0.25,1.56,0.01,2.37,0.48c1.99,1.16,4.04,2.21,6,3.44c1.81,1.13,3.44,1.3,5.16-0.01c3.95-1.81,7.92-3.55,11.58-6.22
		c3.97-4.56,8.63-2.69,13.06-2.04c5.97,0.87,11.82,2.9,17.94,1.94c3.52-0.55,6.44,2.31,9.56,3.8c1.7,0.81,2.93,0.82,4.25-0.59
		c2.63-2.11,5.19-4.35,7.82-6.45c0.09-1.34,0.93-1.97,1.62-2.75c0.59-1.15,1.04-2.42,1.85-3.38c0.78-0.76,0.99-2.08,1.72-2.88
		c0.85-1.09,1.27-2.61,2.22-3.6c0.41-1.21,1.19-2.09,1.78-3.15c2.15-3.32,4.2-6.77,6.48-9.91c5.02-6.93,10.6-12.87,18.54-13.47
		c2.03-0.15,3.95-0.99,5.82-1.97c4.07-2.13,8.18-4.13,12.45-5.53c2.71-0.89,5.13-2.54,7.32-4.7c3.58-3.53,7.43-6.43,11.7-8.34
		c2.05-0.92,3.29-2.32,3.13-5.32c-0.05-1.01-0.24-2.44,1.04-2.8c0.05,3.6,0.15,7.19,0.15,10.79c0.01,27.68,0.01,55.35,0,83.03
		c0,1.51-0.11,3.01-0.17,4.52c-1.37,2.11-3.3,1.83-5.09,1.79c-6.79-0.13-13.55,0.54-20.31,1.25c-2.52,0.26-4.85,1.21-7.08,2.62
		c-3.65,2.3-7.51,3.61-11.51,4.56c-6.04,1.44-11.99,3.29-17.57,6.79c-5.6,3.51-11.63,4.58-17.82,5.19
		c-9.35,0.92-18.7,0.37-28.04,0.61c-4.23,0.11-8.43-0.13-12.6-1.08c-2.01-0.46-4.01-0.31-6,0.33c-2.13,0.68-4.27,1.34-6.41,2.02
		c-5.72,1.82-11.4,2.71-17.4,1.81c-6.34-0.96-12.83,0.05-19.17-1.66c-0.54-0.15-1.11-0.11-1.63-0.33
		c-9.49-4.1-19.19-2.96-28.84-1.63c-10.37,1.43-20.53,0.03-30.54-3.07c-7.9-2.45-15.92-3.18-23.95-4.07
		c-0.37-0.04,0.08,0.08-0.27-0.02c-8.04-2.28-16.1-2.23-24.24-0.79C118.9,269.47,116.39,269.35,114.37,267.24z"/>
	<path class="st4" d="M114.37,267.24c6.14,1.26,12.19,0.55,18.24-1.1c1.8-0.49,3.6,0.54,5.35,1.1c6.08,1.95,12.33,1.9,18.5,2.55
		c6.99,0.73,13.63,3.34,20.46,4.85c9.29,2.04,18.53,1.86,27.86,0.66c7.16-0.92,14.33-1.48,21.48,1.19
		c5.52,2.06,11.28,2.86,17.09,2.61c3.29-0.14,6.58-0.02,9.85,0.67c5.6,1.18,10.85-1.3,16.13-2.91c4.12-1.25,8.08-2.19,12.41-1.35
		c9.28,1.81,18.66,0.59,27.99,0.71c7.41,0.09,14.8-0.35,22.07-2.6c1.82-0.56,3.49-1.5,5.09-2.53c6.62-4.27,13.76-6.26,20.96-7.93
		c2.93-0.68,5.71-1.74,8.28-3.53c3.82-2.65,7.94-3.32,12.16-3.58c7.12-0.44,14.25-0.87,21.37-1.3c0.09,11.95,0.19,23.9,0.26,35.85
		c0.03,4.53,0,9.05,0.01,13.58c-0.31,0.33-0.59,0.29-0.84-0.1c-0.81-1.57-0.65-3.36-0.65-5.09c-0.03-9.2,0.02-18.4-0.02-27.6
		c-0.02-4.1-0.38-4.53-3.5-4.02c-4.39,0.71-8.79,0.33-13.19,0.39c-5.82,0.07-11.52,0.75-16.79,4.32c-2.3,1.56-4.84,2.09-7.39,2.6
		c-7.09,1.43-13.97,3.82-20.53,7.6c-5.09,2.93-10.54,4.15-16.05,4.29c-11,0.27-22.01,0.09-33.01,0.08c-0.28,0-0.56,0.06-0.82-0.03
		c-8.69-2.81-17.09-0.26-25.47,2.31c-3.48,1.07-6.89,0.9-10.35,0.08c-2.34-0.56-4.7-1.1-7.1-0.95c-7.32,0.45-14.45-1.12-21.47-3.49
		c-4.8-1.62-9.59-1.67-14.45-1.03c-12.2,1.6-24.37,1.76-36.32-2.33c-9.07-3.11-18.42-3.95-27.61-5.95
		c-7.58-1.65-15.01-2.24-22.58-1.2c-0.72,0.1-1.47,0-2.2-0.05c-3.82-0.24-3.83-0.24-3.84,4.82c-0.01,6.75,0.01,13.51-0.01,20.26
		c-0.01,1.73,0.16,3.52-0.71,5.06c-0.28,0.37-0.56,0.38-0.85,0.02C114.24,291.87,114.31,279.55,114.37,267.24z"/>
	<path class="st5" d="M399.67,156.42c0.64,5.42-1.1,8.53-5.35,9.92c-3.86,1.26-6.96,4.52-10.1,7.52c-1.98,1.89-4.07,3.55-6.51,4.33
		c-5.25,1.67-10.22,4.32-15.22,6.85c-2.57,1.3-5.36,1.34-8.07,1.78c-1.31,0.21-2.48,0.68-3.59,1.57
		c-5.44,4.39-10.38,9.47-14.27,16.09c-0.98,1.67-2.2,3.1-3.31,4.65c-0.46,0.08-0.76-0.02-0.53-0.74c5.41-9.5,11.29-18.44,18.4-26.02
		c1.81-1.93,3.9-1.45,5.73-1.48c3.62-0.05,6.84-1.41,9.89-3.43c3.98-2.63,8.22-4.41,12.4-6.33c2.43-1.12,4.02-3.54,6-5.35
		c1.77-1.63,3.38-3.53,5.06-5.31c2.66-2.81,5.55-4.9,9.19-4.51C399.49,156.1,399.58,156.26,399.67,156.42z"/>
	<path class="st5" d="M260.05,234.26c-1.63,1.34-3.31,1.77-5.11,0.47c-4.39-3.18-8.89-4.67-14.08-3.26
		c-5.24,1.42-10.32-1.27-15.29-2.91c-4.48-1.48-8.38-1.55-11.92,2.44c-3.12,3.51-6.95,3.74-10.75,3.94
		c-2.52,0.13-4.85,0.96-7.12,2.19c-4.3,2.33-8.87,3.5-13.38,4.89c-1.37,0.42-2.49-0.32-3.62-1.14c-4.98-3.63-9.98-7.23-14.96-10.86
		c-2.75-2-4.63-5.18-6.71-8.09c-0.22-0.38-0.19-0.73,0.09-1.04c6.37,8.69,14.94,13.09,22.8,18.88c1.31,0.97,2.48,0.19,3.69-0.06
		c5.07-1.07,9.86-3.32,14.65-5.6c1.03-0.49,2.06-1.14,3.16-0.97c6.08,0.96,11.02-2.42,15.72-6.61c1.24-1.1,2.36-1.35,3.84-0.89
		c3.11,0.96,6.33,1.38,9.4,2.5c5.22,1.91,10.42,2.14,15.73,0.95c2.25-0.5,3.91,1.61,5.86,2.46c2.22,0.96,4.16,3.54,6.85,2.1
		C259.44,233.4,260.05,232.93,260.05,234.26z"/>
	<path class="st5" d="M316.77,230.76c-1.53,1.97-3.03,2.78-5.29,1.26c-4.32-2.88-8.89-3.99-13.93-3.49
		c-5.26,0.52-10.47-1.58-15.68-2.61c-3.86-0.76-7.38-0.57-10.67,2.23c-0.61,0.41-0.65-0.05-0.61-0.64
		c3.22-3.12,6.67-3.93,10.79-3.14c7.31,1.4,14.65,2.89,22.12,2.51c2.67-0.14,5,2.01,7.45,3.24c1.75,0.88,3.47,1.87,5.2-0.02
		C316.72,229.76,316.78,230.2,316.77,230.76z"/>
	<path class="st6" d="M399.39,155.95c-3.06,1.5-6.12,3.01-9.19,4.51c-0.37-6.5-0.37-6.5,4.24-9.25c0.17-0.1,0.33-0.21,0.5-0.29
		c1.51-0.69,3.55-2.98,4.36-1.9C400.48,150.6,399.98,153.58,399.39,155.95z"/>
	<path class="st5" d="M270.59,227.51c0.2,0.21,0.4,0.43,0.61,0.64c-3.43,2.87-7.27,4.55-11.15,6.11c-0.38-0.21-0.77-0.43-1.15-0.64
		C262.8,231.59,266.7,229.55,270.59,227.51z"/>
	<path class="st5" d="M152.92,216.23c-3.32-0.06-6.63-0.12-9.94-0.18C144.29,213.89,151.66,214.03,152.92,216.23z"/>
	<path class="st5" d="M316.77,230.76c-0.21-0.21-0.41-0.43-0.62-0.64c2.54-2.11,4.67-5.12,7.84-5.89
		C322.15,227.41,319.37,228.92,316.77,230.76z"/>
	<path class="st5" d="M331.64,211.99c-0.65,1.25-1.13,2.66-2.15,3.56c-0.33-0.07-0.52-0.33-0.58-0.75c0.41-1.51,1.33-2.53,2.12-3.69
		C331.41,211.22,331.59,211.52,331.64,211.99z"/>
	<path class="st5" d="M328.91,214.81c0.19,0.25,0.39,0.5,0.58,0.75c-0.48,1.01-0.77,2.22-1.75,2.71c-0.42,0.13-0.62,0-0.44-0.59
		C327.53,216.43,328.15,215.56,328.91,214.81z"/>
	<path class="st5" d="M331.64,211.99c-0.2-0.29-0.41-0.58-0.61-0.87c0.56-0.91,1.12-1.82,1.69-2.73c0.18,0.25,0.35,0.5,0.53,0.74
		C332.71,210.08,332.18,211.04,331.64,211.99z"/>
	<path class="st5" d="M157.2,220.88c-0.03,0.34-0.06,0.69-0.09,1.03c-0.08-0.08-0.21-0.23-0.36-0.41c-2.28-2.65-2.25-3.48-3.6-4.45
		c-0.99-0.71-1.93-0.93-1.87-1.22c0.04-0.2,0.52-0.27,0.94-0.3c0.95,0.6,2.2,1.54,3.37,2.95
		C156.3,219.33,156.82,220.16,157.2,220.88z"/>
	<path class="st5" d="M327.3,217.67c0.15,0.2,0.3,0.39,0.44,0.59c-0.24,0.6-0.51,1.22-0.83,1.86c-1.15,2.28-2.53,4.07-3.8,5.42
		c0.47-2.33,1.48-5.04,3.63-7.31C326.92,218.04,327.11,217.85,327.3,217.67z"/>
	<path class="st7" d="M399.38,304.18c-0.91,0.04-1.83,0.12-2.74,0.12c-93.07,0.01-186.15,0.01-279.22,0c-0.91,0-1.83-0.08-2.75-0.12
		c0.01-9.67,0.06-19.33,0.01-29c-0.01-2.15,0.36-3.49,2.3-2.92c4.56,1.34,9.12,0.59,13.62-0.35c1.96-0.41,3.8-0.53,5.65,0.25
		c5.6,2.35,11.47,2.62,17.25,3.3c7.31,0.85,14.33,3.31,21.43,5.27c8.91,2.46,17.83,3.31,26.91,1.97c9.03-1.33,17.99-1.1,26.85,2.21
		c3.99,1.49,8.19,2.22,12.44,1.93c3.94-0.27,7.85,0.1,11.7,1.3c3.66,1.14,7.28,0.19,10.77-0.93c7.46-2.39,14.74-3.4,22.6-2.11
		c8.75,1.44,17.76,0.22,26.65,0.38c6.33,0.11,12.59-0.25,18.79-2.08c2.53-0.75,4.79-2.23,7.14-3.49c6.6-3.53,13.52-5.65,20.57-6.88
		c2.55-0.45,4.81-1.67,6.92-3.1c3.96-2.67,8.21-2.99,12.47-3.31c5.75-0.43,11.54,0.51,17.27-0.76c2.56-0.57,3.48,0.57,3.42,4.08
		C399.27,281.35,399.38,292.77,399.38,304.18z"/>
	<path class="st7" d="M546.85,141.6c24.65,0,49.3,0.06,73.95-0.07c2.89-0.02,3.58,0.87,3.41,3.55c-0.22,3.54-0.16,7.1-0.01,10.64
		c0.08,1.93-0.59,2.48-2.42,2.36c-2.12-0.14-4.26-0.03-6.39-0.03c-47.68,0-95.35-0.03-143.03,0.08c-3.03,0.01-3.79-0.84-3.57-3.7
		c0.26-3.43,0.18-6.9,0.02-10.34c-0.1-2.04,0.63-2.53,2.57-2.52c13.09,0.08,26.17,0.04,39.26,0.04
		C522.7,141.6,534.77,141.6,546.85,141.6z"/>
	<text transform="matrix(1 0 0 1 469.8022 133.4756)" class="st1 st8">Refugiados (bajo el mandato de ACNUR)</text>
	<path class="st4" d="M490.38,180.75c6.19,0,12.38,0.07,18.57-0.04c2.02-0.04,2.64,0.63,2.58,2.61c-0.13,3.75-0.12,7.51,0,11.26
		c0.06,1.93-0.46,2.67-2.53,2.65c-12.58-0.08-25.17-0.07-37.75-0.01c-1.88,0.01-2.47-0.61-2.42-2.45c0.11-3.85,0.14-7.71-0.01-11.56
		c-0.08-2.12,0.81-2.52,2.69-2.49C477.8,180.81,484.09,180.75,490.38,180.75z"/>
	<path class="st3" d="M649.37,234.91c-58.67,0-117.34,0-176.01,0c-4.57,0-4.57,0-4.57-4.72c0-3.15,0.07-6.29-0.03-9.44
		c-0.05-1.64,0.36-2.52,2.17-2.29c0.7,0.09,1.42,0.01,2.13,0.01c117.54,0,235.09,0,352.63,0c4.27,0,4.27,0,4.27,4.42
		c0,3.25-0.07,6.5,0.03,9.74c0.05,1.64-0.35,2.52-2.17,2.3c-0.8-0.1-1.62-0.02-2.43-0.02C766.7,234.91,708.04,234.91,649.37,234.91z
		"/>
	<path class="st5" d="M484.67,257.11c4.36,0,8.73,0.07,13.08-0.04c1.69-0.04,2.3,0.41,2.24,2.18c-0.13,4.05-0.13,8.11,0,12.17
		c0.06,1.81-0.62,2.17-2.27,2.16c-8.93-0.07-17.85-0.07-26.78,0c-1.56,0.01-2.13-0.38-2.09-2.03c0.11-4.16,0.11-8.32,0-12.47
		c-0.05-1.68,0.59-2.03,2.11-2C475.54,257.16,480.1,257.11,484.67,257.11z"/>
	<path class="st6" d="M483.19,294.29c4.15,0,8.3,0.05,12.45-0.03c1.57-0.03,2.15,0.5,2.11,2.09c-0.08,4.15-0.07,8.3-0.01,12.45
		c0.02,1.44-0.52,1.94-1.95,1.94c-8.5-0.04-17.01-0.04-25.52-0.01c-1.29,0-1.81-0.46-1.8-1.77c0.04-4.25,0.08-8.5-0.01-12.75
		c-0.04-1.75,0.86-1.95,2.26-1.94C474.89,294.32,479.04,294.29,483.19,294.29z"/>
	<text transform="matrix(1 0 0 1 469.8022 172.8165)" class="st1 st8">Refugiados palestinos (bajo el mandato de UNRWA)</text>
	<g>
		<text transform="matrix(1 0 0 1 469.5053 211.1133)" class="st1 st8">Personas desplazadas internas</text>
	</g>
	<g>
		<text transform="matrix(1 0 0 1 468.7505 249.6543)" class="st1 st8">Solicitantes de asilo</text>
	</g>
	<text transform="matrix(1 0 0 1 469.5063 286.7774)" class="st1 st8">Venezolanos desplazados en el extranjero</text>
	<text transform="matrix(1 0 0 1 468.8383 92.6387)"><tspan x="0" y="0" class="st1 st9">82, 4 millones de personas estaban desplazadas por </tspan><tspan x="0" y="17.27" class="st1 st9">la fuerza.</tspan></text>
	<g>
	</g>
	<text transform="matrix(1 0 0 1 495.1079 370.5923)" class="st1 st8">86,7M Europa</text>
	<g>
		<text transform="matrix(1 0 0 1 494.6098 352.2447)" class="st1 st8">58,7M Norte América</text>
	</g>
	<text transform="matrix(1 0 0 1 495.0005 391.6031)" class="st1 st8">85,6M Asia</text>
	<text transform="matrix(1 0 0 1 493.7495 411.6402)" class="st1 st8">25,4M Africa</text>
	<text transform="matrix(1 0 0 1 493.3237 430.9058)" class="st1 st8">14,8M América Latina y Caribe</text>
	<text transform="matrix(1 0 0 1 494.7221 450.9624)" class="st1 st8">9,4M Oceanía</text>
	<g>
		<text transform="matrix(1 0 0 1 470.5053 331.9917)" class="st1 st9">Imigrantes internacionales a mitad del año 2020</text>
	</g>
</g>
<g id="Capa_2">
	<circle class="st4" cx="387.67" cy="289.89" r="4.88"/>
	<circle class="st3" cx="387.67" cy="274.71" r="4.88"/>
	<circle class="st7" cx="387.67" cy="252.83" r="4.88"/>
	<circle class="st5" cx="387.67" cy="191.53" r="4.88"/>
	<circle class="st6" cx="387.68" cy="117.39" r="4.88"/>
	<circle class="st10" cx="387.67" cy="106.14" r="4.88"/>
	<g>
		<circle class="st4" cx="478.95" cy="446.86" r="4.99"/>
		<circle class="st3" cx="478.75" cy="426.9" r="4.99"/>
		<circle class="st7" cx="478.75" cy="406.94" r="4.99"/>
		<circle class="st5" cx="479.33" cy="347.26" r="4.99"/>
		<circle class="st6" cx="478.75" cy="386.99" r="4.99"/>
		<circle class="st10" cx="478.95" cy="367.13" r="4.99"/>
	</g>
	<text transform="matrix(1 0 0 1 471.7231 152.8409)" class="st11 st1 st12">20,7M</text>
	<text transform="matrix(1 0 0 1 471.7231 192.1905)" class="st11 st1 st12">5,7M</text>
	<text transform="matrix(1 0 0 1 472.0434 268.7432)" class="st11 st1 st12">4,1M</text>
	<text transform="matrix(1 0 0 1 471.9673 231.168)" class="st11 st1 st12">48M</text>
	<text transform="matrix(1 0 0 1 471.7231 306.2603)" class="st11 st1 st12">3,9M</text>
</g>
</svg>
